<svg width="16" height="16" viewBox="0 0 16 16" fill="none" xmlns="http://www.w3.org/2000/svg">
<path d="M9.17343 10.4213C9.17343 11.424 8.8161 12.1866 8.10143 12.7093C7.39743 13.232 6.51743 13.4933 5.46143 13.4933C4.01077 13.4933 2.8961 13.2106 2.11743 12.6453L2.34143 10.5973L3.30143 10.6933L3.23743 12.0053C3.58943 12.1866 3.94143 12.3093 4.29343 12.3733C4.64543 12.4373 5.01343 12.4693 5.39743 12.4693C6.0801 12.4693 6.66677 12.3253 7.15743 12.0373C7.65877 11.7386 7.90943 11.2373 7.90943 10.5333C7.90943 9.74398 7.63743 9.23198 7.09343 8.99732C6.54943 8.75198 5.95743 8.55465 5.31743 8.40532C4.82676 8.29865 4.34143 8.16532 3.86143 8.00532C3.38143 7.83465 2.98143 7.57332 2.66143 7.22132C2.34143 6.85865 2.18143 6.33598 2.18143 5.65332C2.18143 4.67198 2.50676 3.94665 3.15743 3.47732C3.81876 3.00798 4.59743 2.77332 5.49343 2.77332C6.06943 2.77332 6.65076 2.85332 7.23743 3.01332C7.8241 3.17332 8.28276 3.38132 8.61343 3.63732L8.70943 5.70132L7.74943 5.79732L7.58943 4.24532C7.25877 4.07465 6.92276 3.96265 6.58143 3.90932C6.2401 3.84532 5.91476 3.81332 5.60543 3.81332C4.95476 3.81332 4.42676 3.96265 4.02143 4.26132C3.62676 4.54932 3.42943 4.97065 3.42943 5.52532C3.42943 6.17598 3.66943 6.61332 4.14943 6.83732C4.62943 7.06132 5.16276 7.24265 5.74943 7.38132C6.21876 7.48798 6.71477 7.62665 7.23743 7.79732C7.77077 7.95732 8.2241 8.23998 8.59743 8.64532C8.98143 9.03998 9.17343 9.63198 9.17343 10.4213Z" fill="currentColor"/>
<path fill-rule="evenodd" clip-rule="evenodd" d="M8.90573 6.24805C10.2864 7.66967 10.9173 9.65842 10.6084 11.6159L9.94988 11.512C10.2261 9.7618 9.662 7.98362 8.42749 6.71252L8.90573 6.24805Z" fill="currentColor"/>
<path fill-rule="evenodd" clip-rule="evenodd" d="M9.99367 5.23016C11.5108 7.07717 12.2593 9.437 12.0842 11.8208L11.4193 11.772C11.5819 9.55887 10.887 7.36804 9.47852 5.65331L9.99367 5.23016Z" fill="currentColor"/>
<path fill-rule="evenodd" clip-rule="evenodd" d="M11.075 4.20703C12.7274 6.47859 13.5985 9.22481 13.5575 12.0335L12.8909 12.0238C12.9298 9.35932 12.1035 6.75412 10.5359 4.5992L11.075 4.20703Z" fill="currentColor"/>
</svg>
